<svg xmlns="http://www.w3.org/2000/svg" viewBox="0 0 64 40" role="img" aria-label="Tailwind CSS">
  <path fill="#38BDF8" d="M32 0C23.466 0 18.133 4.267 16 12.8c3.2-4.267 6.933-5.867 11.2-4.8 2.436.609 4.18 2.379 6.11 4.337C36.46 15.54 40.12 19.2 48 19.2c8.534 0 13.867-4.267 16-12.8-3.2 4.267-6.933 5.867-11.2 4.8-2.436-.609-4.18-2.379-6.11-4.337C43.54 3.66 39.88 0 32 0ZM16 19.2C7.466 19.2 2.133 23.467 0 32c3.2-4.267 6.933-5.867 11.2-4.8 2.436.609 4.18 2.379 6.11 4.337C20.46 34.74 24.12 38.4 32 38.4c8.534 0 13.867-4.267 16-12.8-3.2 4.267-6.933 5.867-11.2 4.8-2.436-.609-4.18-2.379-6.11-4.337C27.54 22.86 23.88 19.2 16 19.2Z"/>
</svg>

